<svg width="96" height="96" viewBox="0 0 96 96" fill="none" xmlns="http://www.w3.org/2000/svg">
  <circle cx="48" cy="48" r="44" fill="#FFF3E6"/>
  <circle cx="48" cy="48" r="42" stroke="#E8C9A2" stroke-width="2"/>
  <path d="M49.6 22C54.1 22 57.8 25.7 57.8 30.2C57.8 33.1 56.3 35.8 54 37.3V41.1C59.9 43 64.2 48.5 64.2 55C64.2 63 57.7 69.5 49.7 69.5H46.3C38.3 69.5 31.8 63 31.8 55C31.8 48.5 36.1 43 42 41.1V37.3C39.7 35.8 38.2 33.1 38.2 30.2C38.2 25.7 41.9 22 46.4 22H49.6Z" fill="#C94B2C"/>
  <path d="M42.6 31.2C42.6 29 44.4 27.2 46.6 27.2H49.4C51.6 27.2 53.4 29 53.4 31.2C53.4 33.4 51.6 35.2 49.4 35.2H46.6C44.4 35.2 42.6 33.4 42.6 31.2Z" fill="#F37752"/>
  <path d="M40.7 45.5C37.1 47.5 34.7 51.4 34.7 55.8C34.7 62 39.8 67.1 46 67.1H50C56.2 67.1 61.3 62 61.3 55.8C61.3 51.4 58.9 47.5 55.3 45.5L52.8 50L55.1 53.1L48 62L40.9 53.1L43.2 50L40.7 45.5Z" fill="#D95131"/>
  <path d="M42 37.5H54V42.6H42V37.5Z" fill="#B53E22"/>
  <path d="M38.5 52.1L28 48.8L29.2 44.7L39.6 47.9L38.5 52.1Z" fill="#D95131"/>
  <path d="M57.5 52.1L68 48.8L66.8 44.7L56.4 47.9L57.5 52.1Z" fill="#D95131"/>
  <path d="M36.8 58.3L26.8 62.8L25 58.9L35 54.4L36.8 58.3Z" fill="#D95131"/>
  <path d="M59.2 58.3L69.2 62.8L71 58.9L61 54.4L59.2 58.3Z" fill="#D95131"/>
  <path d="M41.6 19.3L36.1 12L39.4 9.5L44.9 16.8L41.6 19.3Z" fill="#B53E22"/>
  <path d="M54.4 19.3L59.9 12L56.6 9.5L51.1 16.8L54.4 19.3Z" fill="#B53E22"/>
  <circle cx="44.8" cy="30.8" r="1.2" fill="#FFF3E6"/>
  <circle cx="51.2" cy="30.8" r="1.2" fill="#FFF3E6"/>
</svg>
